<svg width="350" height="203" viewBox="0 0 350 203" fill="none" xmlns="http://www.w3.org/2000/svg">
<rect x="5" y="5" width="340" height="193" rx="20" fill="#0A4AC2"/>
<rect x="5" y="5" width="340" height="193" rx="20" stroke="#062F79" stroke-width="10"/>
<mask id="path-2-outside-1_1_2" maskUnits="userSpaceOnUse" x="156" y="115" width="158" height="48" fill="black">
<rect fill="white" x="156" y="115" width="158" height="48"/>
<path d="M158.6 160V118H167.54L183.92 145.03V118H192.2V160H183.26L166.88 132.97V160H158.6ZM218.881 160.78C216.041 160.78 213.371 160.22 210.871 159.1C208.371 157.96 206.171 156.39 204.271 154.39C202.371 152.39 200.881 150.08 199.801 147.46C198.721 144.82 198.181 142 198.181 139C198.181 136 198.721 133.19 199.801 130.57C200.881 127.93 202.371 125.61 204.271 123.61C206.171 121.61 208.371 120.05 210.871 118.93C213.371 117.79 216.041 117.22 218.881 117.22C221.741 117.22 224.421 117.79 226.921 118.93C229.421 120.05 231.621 121.61 233.521 123.61C235.421 125.61 236.901 127.93 237.961 130.57C239.041 133.19 239.581 136 239.581 139C239.581 142 239.041 144.82 237.961 147.46C236.901 150.08 235.421 152.39 233.521 154.39C231.621 156.39 229.421 157.96 226.921 159.1C224.421 160.22 221.741 160.78 218.881 160.78ZM218.881 152.5C220.581 152.5 222.181 152.15 223.681 151.45C225.181 150.73 226.501 149.75 227.641 148.51C228.781 147.27 229.671 145.84 230.311 144.22C230.971 142.6 231.301 140.86 231.301 139C231.301 137.14 230.971 135.4 230.311 133.78C229.671 132.14 228.781 130.71 227.641 129.49C226.501 128.25 225.181 127.28 223.681 126.58C222.181 125.86 220.581 125.5 218.881 125.5C217.181 125.5 215.581 125.86 214.081 126.58C212.581 127.28 211.261 128.25 210.121 129.49C208.981 130.73 208.081 132.16 207.421 133.78C206.781 135.4 206.461 137.14 206.461 139C206.461 140.86 206.781 142.61 207.421 144.25C208.081 145.87 208.981 147.3 210.121 148.54C211.261 149.76 212.581 150.73 214.081 151.45C215.581 152.15 217.181 152.5 218.881 152.5ZM244.85 160V118H258.77C261.67 118 264.38 118.55 266.9 119.65C269.44 120.73 271.67 122.24 273.59 124.18C275.53 126.1 277.04 128.33 278.12 130.87C279.22 133.39 279.77 136.1 279.77 139C279.77 141.9 279.22 144.62 278.12 147.16C277.04 149.68 275.53 151.91 273.59 153.85C271.67 155.77 269.44 157.28 266.9 158.38C264.38 159.46 261.67 160 258.77 160H244.85ZM253.13 151.72H258.77C260.49 151.72 262.11 151.39 263.63 150.73C265.17 150.07 266.53 149.16 267.71 148C268.89 146.84 269.81 145.49 270.47 143.95C271.15 142.41 271.49 140.76 271.49 139C271.49 137.24 271.15 135.6 270.47 134.08C269.81 132.54 268.89 131.19 267.71 130.03C266.55 128.85 265.2 127.93 263.66 127.27C262.14 126.61 260.51 126.28 258.77 126.28H253.13V151.72ZM284.459 160V118H311.039V126.28H292.739V133.36H307.019V141.64H292.739V151.72H311.039V160H284.459Z"/>
</mask>
<path d="M158.6 160V118H167.54L183.92 145.03V118H192.2V160H183.26L166.88 132.97V160H158.6ZM218.881 160.78C216.041 160.78 213.371 160.22 210.871 159.1C208.371 157.96 206.171 156.39 204.271 154.39C202.371 152.39 200.881 150.08 199.801 147.46C198.721 144.82 198.181 142 198.181 139C198.181 136 198.721 133.19 199.801 130.57C200.881 127.93 202.371 125.61 204.271 123.61C206.171 121.61 208.371 120.05 210.871 118.93C213.371 117.79 216.041 117.22 218.881 117.22C221.741 117.22 224.421 117.79 226.921 118.93C229.421 120.05 231.621 121.61 233.521 123.61C235.421 125.61 236.901 127.93 237.961 130.57C239.041 133.19 239.581 136 239.581 139C239.581 142 239.041 144.82 237.961 147.46C236.901 150.08 235.421 152.39 233.521 154.39C231.621 156.39 229.421 157.96 226.921 159.1C224.421 160.22 221.741 160.78 218.881 160.78ZM218.881 152.5C220.581 152.5 222.181 152.15 223.681 151.45C225.181 150.73 226.501 149.75 227.641 148.51C228.781 147.27 229.671 145.84 230.311 144.22C230.971 142.6 231.301 140.86 231.301 139C231.301 137.14 230.971 135.4 230.311 133.78C229.671 132.14 228.781 130.71 227.641 129.49C226.501 128.25 225.181 127.28 223.681 126.58C222.181 125.86 220.581 125.5 218.881 125.5C217.181 125.5 215.581 125.86 214.081 126.58C212.581 127.28 211.261 128.25 210.121 129.49C208.981 130.73 208.081 132.16 207.421 133.78C206.781 135.4 206.461 137.14 206.461 139C206.461 140.86 206.781 142.61 207.421 144.25C208.081 145.87 208.981 147.3 210.121 148.54C211.261 149.76 212.581 150.73 214.081 151.45C215.581 152.15 217.181 152.5 218.881 152.5ZM244.85 160V118H258.77C261.67 118 264.38 118.55 266.9 119.65C269.44 120.73 271.67 122.24 273.59 124.18C275.53 126.1 277.04 128.33 278.12 130.87C279.22 133.39 279.77 136.1 279.77 139C279.77 141.9 279.22 144.62 278.12 147.16C277.04 149.68 275.53 151.91 273.59 153.85C271.67 155.77 269.44 157.28 266.9 158.38C264.38 159.46 261.67 160 258.77 160H244.85ZM253.13 151.72H258.77C260.49 151.72 262.11 151.39 263.63 150.73C265.17 150.07 266.53 149.16 267.71 148C268.89 146.84 269.81 145.49 270.47 143.95C271.15 142.41 271.49 140.76 271.49 139C271.49 137.24 271.15 135.6 270.47 134.08C269.81 132.54 268.89 131.19 267.71 130.03C266.55 128.85 265.2 127.93 263.66 127.27C262.14 126.61 260.51 126.28 258.77 126.28H253.13V151.72ZM284.459 160V118H311.039V126.28H292.739V133.36H307.019V141.64H292.739V151.72H311.039V160H284.459Z" fill="white"/>
<path d="M158.6 160H156.6V162H158.6V160ZM158.6 118V116H156.6V118H158.6ZM167.54 118L169.25 116.963L168.667 116H167.54V118ZM183.92 145.03L182.21 146.067L185.92 152.189V145.03H183.92ZM183.92 118V116H181.92V118H183.92ZM192.2 118H194.2V116H192.2V118ZM192.2 160V162H194.2V160H192.2ZM183.26 160L181.55 161.037L182.133 162H183.26V160ZM166.88 132.97L168.59 131.933L164.88 125.811V132.97H166.88ZM166.88 160V162H168.88V160H166.88ZM158.6 160H160.6V118H158.6H156.6V160H158.6ZM158.6 118V120H167.54V118V116H158.6V118ZM167.54 118L165.83 119.037L182.21 146.067L183.92 145.03L185.63 143.993L169.25 116.963L167.54 118ZM183.92 145.03H185.92V118H183.92H181.92V145.03H183.92ZM183.92 118V120H192.2V118V116H183.92V118ZM192.2 118H190.2V160H192.2H194.2V118H192.2ZM192.2 160V158H183.26V160V162H192.2V160ZM183.26 160L184.97 158.963L168.59 131.933L166.88 132.97L165.17 134.007L181.55 161.037L183.26 160ZM166.88 132.97H164.88V160H166.88H168.88V132.97H166.88ZM166.88 160V158H158.6V160V162H166.88V160ZM210.871 159.1L210.041 160.92L210.054 160.925L210.871 159.1ZM204.271 154.39L205.721 153.013V153.013L204.271 154.39ZM199.801 147.46L197.95 148.217L197.952 148.222L199.801 147.46ZM199.801 130.57L201.65 131.332L201.652 131.327L199.801 130.57ZM204.271 123.61L205.721 124.987V124.987L204.271 123.61ZM210.871 118.93L211.689 120.755L211.701 120.75L210.871 118.93ZM226.921 118.93L226.091 120.75L226.104 120.755L226.921 118.93ZM233.521 123.61L232.071 124.987V124.987L233.521 123.61ZM237.961 130.57L236.105 131.315L236.109 131.324L236.112 131.332L237.961 130.57ZM237.961 147.46L236.11 146.703L236.107 146.71L237.961 147.46ZM233.521 154.39L232.071 153.013V153.013L233.521 154.39ZM226.921 159.1L227.739 160.925L227.751 160.92L226.921 159.1ZM223.681 151.45L224.527 153.262L224.537 153.258L224.547 153.253L223.681 151.45ZM227.641 148.51L229.114 149.864L227.641 148.51ZM230.311 144.22L228.459 143.465L228.455 143.475L228.451 143.485L230.311 144.22ZM230.311 133.78L228.448 134.507L228.453 134.521L228.459 134.535L230.311 133.78ZM227.641 129.49L226.169 130.844L226.174 130.85L226.18 130.855L227.641 129.49ZM223.681 126.58L222.816 128.383L222.826 128.388L222.835 128.392L223.681 126.58ZM214.081 126.58L214.927 128.392L214.937 128.388L214.947 128.383L214.081 126.58ZM210.121 129.49L208.649 128.136L208.649 128.136L210.121 129.49ZM207.421 133.78L205.569 133.025L205.565 133.035L205.561 133.045L207.421 133.78ZM207.421 144.25L205.558 144.977L205.563 144.991L205.569 145.005L207.421 144.25ZM210.121 148.54L208.649 149.894L208.654 149.9L208.66 149.905L210.121 148.54ZM214.081 151.45L213.216 153.253L213.226 153.258L213.235 153.262L214.081 151.45ZM218.881 160.78V158.78C216.312 158.78 213.922 158.275 211.689 157.275L210.871 159.1L210.054 160.925C212.82 162.165 215.77 162.78 218.881 162.78V160.78ZM210.871 159.1L211.701 157.28C209.435 156.247 207.445 154.827 205.721 153.013L204.271 154.39L202.821 155.767C204.897 157.953 207.307 159.673 210.041 160.92L210.871 159.1ZM204.271 154.39L205.721 153.013C203.996 151.196 202.639 149.096 201.65 146.698L199.801 147.46L197.952 148.222C199.124 151.064 200.747 153.584 202.821 155.767L204.271 154.39ZM199.801 147.46L201.652 146.703C200.676 144.315 200.181 141.754 200.181 139H198.181H196.181C196.181 142.246 196.767 145.325 197.95 148.217L199.801 147.46ZM198.181 139H200.181C200.181 136.246 200.676 133.696 201.65 131.332L199.801 130.57L197.952 129.808C196.767 132.684 196.181 135.754 196.181 139H198.181ZM199.801 130.57L201.652 131.327C202.642 128.909 203.998 126.801 205.721 124.987L204.271 123.61L202.821 122.232C200.744 124.419 199.121 126.951 197.95 129.813L199.801 130.57ZM204.271 123.61L205.721 124.987C207.443 123.175 209.429 121.768 211.689 120.755L210.871 118.93L210.054 117.105C207.314 118.332 204.9 120.045 202.821 122.232L204.271 123.61ZM210.871 118.93L211.701 120.75C213.932 119.733 216.318 119.22 218.881 119.22V117.22V115.22C215.765 115.22 212.811 115.847 210.041 117.11L210.871 118.93ZM218.881 117.22V119.22C221.467 119.22 223.863 119.733 226.091 120.75L226.921 118.93L227.751 117.11C224.98 115.847 222.016 115.22 218.881 115.22V117.22ZM226.921 118.93L226.104 120.755C228.364 121.768 230.35 123.175 232.071 124.987L233.521 123.61L234.971 122.233C232.893 120.045 230.479 118.332 227.739 117.105L226.921 118.93ZM233.521 123.61L232.071 124.987C233.792 126.799 235.136 128.902 236.105 131.315L237.961 130.57L239.817 129.825C238.666 126.958 237.051 124.421 234.971 122.232L233.521 123.61ZM237.961 130.57L236.112 131.332C237.087 133.696 237.581 136.246 237.581 139H239.581H241.581C241.581 135.754 240.996 132.684 239.81 129.808L237.961 130.57ZM239.581 139H237.581C237.581 141.754 237.087 144.315 236.11 146.703L237.961 147.46L239.812 148.217C240.996 145.325 241.581 142.246 241.581 139H239.581ZM237.961 147.46L236.107 146.71C235.139 149.103 233.794 151.199 232.071 153.013L233.521 154.39L234.971 155.767C237.048 153.581 238.663 151.057 239.815 148.21L237.961 147.46ZM233.521 154.39L232.071 153.013C230.347 154.827 228.357 156.247 226.091 157.28L226.921 159.1L227.751 160.92C230.485 159.673 232.895 157.953 234.971 155.767L233.521 154.39ZM226.921 159.1L226.104 157.275C223.872 158.274 221.472 158.78 218.881 158.78V160.78V162.78C222.01 162.78 224.97 162.166 227.739 160.925L226.921 159.1ZM218.881 152.5V154.5C220.865 154.5 222.755 154.089 224.527 153.262L223.681 151.45L222.835 149.638C221.608 150.211 220.297 150.5 218.881 150.5V152.5ZM223.681 151.45L224.547 153.253C226.279 152.422 227.804 151.288 229.114 149.864L227.641 148.51L226.169 147.156C225.199 148.212 224.084 149.038 222.816 149.647L223.681 151.45ZM227.641 148.51L229.114 149.864C230.425 148.437 231.444 146.795 232.171 144.955L230.311 144.22L228.451 143.485C227.898 144.885 227.137 146.103 226.169 147.156L227.641 148.51ZM230.311 144.22L232.163 144.975C232.927 143.1 233.301 141.102 233.301 139H231.301H229.301C229.301 140.618 229.015 142.1 228.459 143.465L230.311 144.22ZM231.301 139H233.301C233.301 136.898 232.927 134.9 232.163 133.025L230.311 133.78L228.459 134.535C229.015 135.9 229.301 137.382 229.301 139H231.301ZM230.311 133.78L232.174 133.053C231.447 131.19 230.425 129.54 229.103 128.125L227.641 129.49L226.18 130.855C227.137 131.88 227.895 133.09 228.448 134.507L230.311 133.78ZM227.641 129.49L229.114 128.136C227.8 126.707 226.268 125.58 224.527 124.768L223.681 126.58L222.835 128.392C224.094 128.98 225.203 129.793 226.169 130.844L227.641 129.49ZM223.681 126.58L224.547 124.777C222.771 123.924 220.874 123.5 218.881 123.5V125.5V127.5C220.288 127.5 221.592 127.796 222.816 128.383L223.681 126.58ZM218.881 125.5V123.5C216.888 123.5 214.992 123.924 213.216 124.777L214.081 126.58L214.947 128.383C216.171 127.796 217.474 127.5 218.881 127.5V125.5ZM214.081 126.58L213.235 124.768C211.494 125.58 209.963 126.707 208.649 128.136L210.121 129.49L211.594 130.844C212.56 129.793 213.668 128.98 214.927 128.392L214.081 126.58ZM210.121 129.49L208.649 128.136C207.341 129.559 206.315 131.193 205.569 133.025L207.421 133.78L209.273 134.535C209.847 133.127 210.621 131.901 211.594 130.844L210.121 129.49ZM207.421 133.78L205.561 133.045C204.823 134.915 204.461 136.906 204.461 139H206.461H208.461C208.461 137.374 208.74 135.885 209.281 134.515L207.421 133.78ZM206.461 139H204.461C204.461 141.095 204.823 143.092 205.558 144.977L207.421 144.25L209.284 143.523C208.74 142.128 208.461 140.625 208.461 139H206.461ZM207.421 144.25L205.569 145.005C206.315 146.837 207.341 148.471 208.649 149.894L210.121 148.54L211.594 147.186C210.621 146.129 209.847 144.903 209.273 143.495L207.421 144.25ZM210.121 148.54L208.66 149.905C209.969 151.306 211.491 152.425 213.216 153.253L214.081 151.45L214.947 149.647C213.672 149.035 212.553 148.214 211.583 147.175L210.121 148.54ZM214.081 151.45L213.235 153.262C215.008 154.089 216.897 154.5 218.881 154.5V152.5V150.5C217.465 150.5 216.155 150.211 214.927 149.638L214.081 151.45ZM244.85 160H242.85V162H244.85V160ZM244.85 118V116H242.85V118H244.85ZM266.9 119.65L266.1 121.483L266.109 121.487L266.117 121.491L266.9 119.65ZM273.59 124.18L272.168 125.587L272.176 125.594L272.183 125.602L273.59 124.18ZM278.12 130.87L276.279 131.653L276.283 131.661L276.287 131.67L278.12 130.87ZM278.12 147.16L276.285 146.365L276.282 146.372L278.12 147.16ZM273.59 153.85L275.004 155.264V155.264L273.59 153.85ZM266.9 158.38L267.688 160.218L267.695 160.215L266.9 158.38ZM253.13 151.72H251.13V153.72H253.13V151.72ZM263.63 150.73L262.842 148.892L262.833 148.895L263.63 150.73ZM267.71 148L269.112 149.426V149.426L267.71 148ZM270.47 143.95L268.64 143.142L268.636 143.152L268.632 143.162L270.47 143.95ZM270.47 134.08L268.632 134.868L268.638 134.882L268.644 134.897L270.47 134.08ZM267.71 130.03L266.284 131.432L266.296 131.444L266.308 131.456L267.71 130.03ZM263.66 127.27L262.863 129.105L262.872 129.108L263.66 127.27ZM253.13 126.28V124.28H251.13V126.28H253.13ZM244.85 160H246.85V118H244.85H242.85V160H244.85ZM244.85 118V120H258.77V118V116H244.85V118ZM258.77 118V120C261.41 120 263.846 120.499 266.1 121.483L266.9 119.65L267.7 117.817C264.914 116.601 261.93 116 258.77 116V118ZM266.9 119.65L266.117 121.491C268.421 122.47 270.433 123.834 272.168 125.587L273.59 124.18L275.012 122.773C272.907 120.646 270.459 118.99 267.683 117.809L266.9 119.65ZM273.59 124.18L272.183 125.602C273.936 127.337 275.3 129.349 276.279 131.653L278.12 130.87L279.961 130.087C278.78 127.311 277.124 124.863 274.997 122.758L273.59 124.18ZM278.12 130.87L276.287 131.67C277.271 133.924 277.77 136.36 277.77 139H279.77H281.77C281.77 135.84 281.169 132.856 279.953 130.07L278.12 130.87ZM279.77 139H277.77C277.77 141.64 277.271 144.088 276.285 146.365L278.12 147.16L279.955 147.955C281.169 145.152 281.77 142.16 281.77 139H279.77ZM278.12 147.16L276.282 146.372C275.302 148.658 273.936 150.676 272.176 152.436L273.59 153.85L275.004 155.264C277.124 153.144 278.778 150.702 279.958 147.948L278.12 147.16ZM273.59 153.85L272.176 152.436C270.437 154.174 268.419 155.543 266.105 156.545L266.9 158.38L267.695 160.215C270.461 159.017 272.903 157.366 275.004 155.264L273.59 153.85ZM266.9 158.38L266.112 156.542C263.855 157.509 261.415 158 258.77 158V160V162C261.925 162 264.905 161.411 267.688 160.218L266.9 158.38ZM258.77 160V158H244.85V160V162H258.77V160ZM253.13 151.72V153.72H258.77V151.72V149.72H253.13V151.72ZM258.77 151.72V153.72C260.753 153.72 262.646 153.338 264.427 152.565L263.63 150.73L262.833 148.895C261.574 149.442 260.227 149.72 258.77 149.72V151.72ZM263.63 150.73L264.418 152.568C266.183 151.812 267.752 150.763 269.112 149.426L267.71 148L266.308 146.574C265.308 147.557 264.157 148.328 262.842 148.892L263.63 150.73ZM267.71 148L269.112 149.426C270.48 148.082 271.547 146.514 272.308 144.738L270.47 143.95L268.632 143.162C268.073 144.466 267.3 145.598 266.308 146.574L267.71 148ZM270.47 143.95L272.3 144.758C273.097 142.952 273.49 141.025 273.49 139H271.49H269.49C269.49 140.495 269.203 141.868 268.64 143.142L270.47 143.95ZM271.49 139H273.49C273.49 136.975 273.097 135.055 272.296 133.263L270.47 134.08L268.644 134.897C269.203 136.145 269.49 137.505 269.49 139H271.49ZM270.47 134.08L272.308 133.292C271.547 131.516 270.48 129.948 269.112 128.604L267.71 130.03L266.308 131.456C267.3 132.432 268.073 133.564 268.632 134.868L270.47 134.08ZM267.71 130.03L269.136 128.628C267.792 127.26 266.224 126.193 264.448 125.432L263.66 127.27L262.872 129.108C264.176 129.667 265.308 130.44 266.284 131.432L267.71 130.03ZM263.66 127.27L264.457 125.435C262.673 124.661 260.77 124.28 258.77 124.28V126.28V128.28C260.25 128.28 261.607 128.559 262.863 129.105L263.66 127.27ZM258.77 126.28V124.28H253.13V126.28V128.28H258.77V126.28ZM253.13 126.28H251.13V151.72H253.13H255.13V126.28H253.13ZM284.459 160H282.459V162H284.459V160ZM284.459 118V116H282.459V118H284.459ZM311.039 118H313.039V116H311.039V118ZM311.039 126.28V128.28H313.039V126.28H311.039ZM292.739 126.28V124.28H290.739V126.28H292.739ZM292.739 133.36H290.739V135.36H292.739V133.36ZM307.019 133.36H309.019V131.36H307.019V133.36ZM307.019 141.64V143.64H309.019V141.64H307.019ZM292.739 141.64V139.64H290.739V141.64H292.739ZM292.739 151.72H290.739V153.72H292.739V151.72ZM311.039 151.72H313.039V149.72H311.039V151.72ZM311.039 160V162H313.039V160H311.039ZM284.459 160H286.459V118H284.459H282.459V160H284.459ZM284.459 118V120H311.039V118V116H284.459V118ZM311.039 118H309.039V126.28H311.039H313.039V118H311.039ZM311.039 126.28V124.28H292.739V126.28V128.28H311.039V126.28ZM292.739 126.28H290.739V133.36H292.739H294.739V126.28H292.739ZM292.739 133.36V135.36H307.019V133.36V131.36H292.739V133.36ZM307.019 133.36H305.019V141.64H307.019H309.019V133.36H307.019ZM307.019 141.64V139.64H292.739V141.64V143.64H307.019V141.64ZM292.739 141.64H290.739V151.72H292.739H294.739V141.64H292.739ZM292.739 151.72V153.72H311.039V151.72V149.72H292.739V151.72ZM311.039 151.72H309.039V160H311.039H313.039V151.72H311.039ZM311.039 160V158H284.459V160V162H311.039V160Z" fill="#062F79" mask="url(#path-2-outside-1_1_2)"/>
<mask id="path-4-outside-2_1_2" maskUnits="userSpaceOnUse" x="42" y="41" width="47" height="46" fill="black">
<rect fill="white" x="42" y="41" width="47" height="46"/>
<path d="M60.64 43H70.06L85.3 85H76.51L73.99 78.04H56.71L54.19 85H45.4L60.64 43ZM59.74 69.76H70.96L65.32 54.37L59.74 69.76Z"/>
</mask>
<path d="M60.64 43H70.06L85.3 85H76.51L73.99 78.04H56.71L54.19 85H45.4L60.64 43ZM59.74 69.76H70.96L65.32 54.37L59.74 69.76Z" fill="white"/>
<path d="M60.64 43V41H59.2381L58.7599 42.3178L60.64 43ZM70.06 43L71.9401 42.3178L71.4619 41H70.06V43ZM85.3 85V87H88.1533L87.1801 84.3178L85.3 85ZM76.51 85L74.6295 85.6809L75.1071 87H76.51V85ZM73.99 78.04L75.8705 77.3591L75.3929 76.04H73.99V78.04ZM56.71 78.04V76.04H55.3071L54.8295 77.3591L56.71 78.04ZM54.19 85V87H55.5929L56.0705 85.6809L54.19 85ZM45.4 85L43.5199 84.3178L42.5467 87H45.4V85ZM59.74 69.76L57.8598 69.0783L56.8875 71.76H59.74V69.76ZM70.96 69.76V71.76H73.823L72.8379 69.0718L70.96 69.76ZM65.32 54.37L67.1979 53.6818L65.31 48.5302L63.4398 53.6883L65.32 54.37ZM60.64 43V45H70.06V43V41H60.64V43ZM70.06 43L68.1799 43.6822L83.4199 85.6822L85.3 85L87.1801 84.3178L71.9401 42.3178L70.06 43ZM85.3 85V83H76.51V85V87H85.3V85ZM76.51 85L78.3905 84.3191L75.8705 77.3591L73.99 78.04L72.1095 78.7209L74.6295 85.6809L76.51 85ZM73.99 78.04V76.04H56.71V78.04V80.04H73.99V78.04ZM56.71 78.04L54.8295 77.3591L52.3095 84.3191L54.19 85L56.0705 85.6809L58.5905 78.7209L56.71 78.04ZM54.19 85V83H45.4V85V87H54.19V85ZM45.4 85L47.2801 85.6822L62.5201 43.6822L60.64 43L58.7599 42.3178L43.5199 84.3178L45.4 85ZM59.74 69.76V71.76H70.96V69.76V67.76H59.74V69.76ZM70.96 69.76L72.8379 69.0718L67.1979 53.6818L65.32 54.37L63.4421 55.0582L69.0821 70.4482L70.96 69.76ZM65.32 54.37L63.4398 53.6883L57.8598 69.0783L59.74 69.76L61.6202 70.4417L67.2002 55.0517L65.32 54.37Z" fill="#062F79" mask="url(#path-4-outside-2_1_2)"/>
<path d="M101 62C101 62 141.5 116 108.5 92.5C75.5 69 109.5 138 64 121.5C18.5 105 28.5 171 67.5 171.5C106.5 172 157.5 64.5 195 62C232.5 59.5 224.5 96.5 224.5 96.5" stroke="#DFF1FC" stroke-width="8"/>
<circle cx="101" cy="62" r="13" fill="#DFF1FC" stroke="#062F79" stroke-width="2"/>
<circle cx="224" cy="94" r="13" fill="#DFF1FC" stroke="#062F79" stroke-width="2"/>
</svg>
